<?xml version="1.0" encoding="UTF-8"?>
<svg version="1.1" xmlns="http://www.w3.org/2000/svg" width="515" height="202">
<path d="M0 0 C10.89 0 21.78 0 33 0 C33 6.27 33 12.54 33 19 C35.29702881 18.99476318 37.59405762 18.98952637 39.96069336 18.98413086 C47.53235636 18.96759445 55.10402013 18.95652857 62.67569637 18.94818783 C67.2684264 18.94295918 71.861138 18.93586188 76.45385742 18.92456055 C80.88233688 18.913731 85.31079856 18.90772302 89.73929024 18.90512276 C91.43265628 18.90326863 93.12602129 18.89964825 94.81937981 18.89426994 C97.18291232 18.8870586 99.54637045 18.8860091 101.90991211 18.88647461 C102.61697296 18.88287933 103.32403381 18.87928406 104.05252075 18.87557983 C108.88594784 18.88594784 108.88594784 18.88594784 110 20 C110.10053508 22.8250333 110.13615716 25.62565285 110.12939453 28.45117188 C110.13202301 29.78034386 110.13202301 29.78034386 110.13470459 31.1363678 C110.1391244 34.08051482 110.13618467 37.02460231 110.1328125 39.96875 C110.1334855 42.00516776 110.1344555 44.04158544 110.13571167 46.07800293 C110.13718882 50.35197716 110.13503355 54.62593053 110.13037109 58.89990234 C110.1246738 64.39158539 110.12795271 69.88321957 110.13394356 75.37490082 C110.13754872 79.58177054 110.13641079 83.78862859 110.13381577 87.99549866 C110.13314637 90.02100124 110.13397535 92.04650486 110.13629532 94.07200623 C110.1388211 96.8976423 110.1349823 99.72319807 110.12939453 102.54882812 C110.13141876 103.39457901 110.13344299 104.2403299 110.13552856 105.11170959 C110.11426241 110.88573759 110.11426241 110.88573759 109 112 C107.14630389 112.08737645 105.28932459 112.10698153 103.43359375 112.09765625 C102.30888672 112.09443359 101.18417969 112.09121094 100.02539062 112.08789062 C98.84138672 112.07951172 97.65738281 112.07113281 96.4375 112.0625 C95.24962891 112.05798828 94.06175781 112.05347656 92.83789062 112.04882812 C89.89190588 112.03699686 86.94594684 112.01906076 84 112 C84 119.92 84 127.84 84 136 C79.71 136 75.42 136 71 136 C71 123.46 71 110.92 71 98 C79.25 98 87.5 98 96 98 C96 76.22 96 54.44 96 32 C75.21 32 54.42 32 33 32 C33 62.03 33 92.06 33 123 C40.92 122.505 40.92 122.505 49 122 C49 114.41 49 106.82 49 99 C53.62 99 58.24 99 63 99 C63 111.21 63 123.42 63 136 C48.81 136 34.62 136 20 136 C20 101.68 20 67.36 20 32 C13.4 32 6.8 32 0 32 C0 21.44 0 10.88 0 0 Z M14 13 C14 14.98 14 16.96 14 19 C15.98 19 17.96 19 20 19 C20 17.02 20 15.04 20 13 C18.02 13 16.04 13 14 13 Z " fill="#F38635" transform="translate(33,32)"/>
<path d="M0 0 C4.58978038 -0.0992963 9.17892788 -0.17166748 13.76953125 -0.21972656 C15.32921244 -0.23977222 16.88881913 -0.26701657 18.44824219 -0.30175781 C20.69745314 -0.35059126 22.9456659 -0.37303815 25.1953125 -0.390625 C26.23161301 -0.42159271 26.23161301 -0.42159271 27.28884888 -0.45318604 C32.32028538 -0.45548844 35.1310997 0.84438948 39 4 C42.35759244 9.64837108 41.3341908 16.77071796 41.31567383 23.14672852 C41.31251443 25.42708164 41.33599538 27.70613516 41.36132812 29.98632812 C41.36360157 31.44791504 41.3643044 32.90950542 41.36328125 34.37109375 C41.36626221 35.69036865 41.36924316 37.00964355 41.37231445 38.36889648 C40.90453697 42.93103054 39.74823946 46.45574615 36.24658203 49.54882812 C35.83520996 50.02771484 35.42383789 50.50660156 35 51 C35.15817845 53.50503408 35.15817845 53.50503408 36.0546875 56.21875 C36.33957031 57.23324219 36.62445313 58.24773437 36.91796875 59.29296875 C37.23378906 60.35128906 37.54960937 61.40960938 37.875 62.5 C38.48389121 64.59163046 39.08579396 66.68531179 39.6796875 68.78125 C39.95538574 69.71001953 40.23108398 70.63878906 40.51513672 71.59570312 C41 74 41 74 40 77 C35.71 77 31.42 77 27 77 C24.88690234 71.82291073 23.26306573 66.58560259 21.8125 61.1875 C21.63364258 60.52935303 21.45478516 59.87120605 21.27050781 59.19311523 C20.52593957 56.36905352 20 53.93484047 20 51 C18.35 51 16.7 51 15 51 C15.00523682 51.7520874 15.01047363 52.5041748 15.01586914 53.27905273 C15.03657227 56.66519342 15.04963877 60.05132084 15.0625 63.4375 C15.07087891 64.62150391 15.07925781 65.80550781 15.08789062 67.02539062 C15.09111328 68.15009766 15.09433594 69.27480469 15.09765625 70.43359375 C15.10289307 71.47572021 15.10812988 72.51784668 15.11352539 73.59155273 C15 76 15 76 14 77 C11.83519203 77.0989294 9.66706215 77.129711 7.5 77.125 C6.3140625 77.12757813 5.128125 77.13015625 3.90625 77.1328125 C1 77 1 77 0 76 C-0.09494733 73.62699131 -0.12559319 71.28321297 -0.11352539 68.90991211 C-0.11367142 68.16849472 -0.11381744 67.42707733 -0.1139679 66.66319275 C-0.11326865 64.20121379 -0.10547574 61.73930957 -0.09765625 59.27734375 C-0.09579211 57.57483461 -0.09436819 55.87232493 -0.09336853 54.16981506 C-0.08954302 49.68006927 -0.07971247 45.19035562 -0.06866455 40.70062256 C-0.05845113 36.12268509 -0.05387106 31.54474244 -0.04882812 26.96679688 C-0.03809022 17.97785043 -0.02101341 8.98892788 0 0 Z M15 13 C15 21.25 15 29.5 15 38 C22.49152482 38.73960026 22.49152482 38.73960026 26 36 C26.43244538 33.69447906 26.43244538 33.69447906 26.328125 31.02734375 C26.32296875 30.04572266 26.3178125 29.06410156 26.3125 28.05273438 C26.291875 27.02470703 26.27125 25.99667969 26.25 24.9375 C26.24484375 23.90560547 26.2396875 22.87371094 26.234375 21.81054688 C26.62404882 17.05861715 26.62404882 17.05861715 25 13 C21.7 13 18.4 13 15 13 Z " fill="#707175" transform="translate(433,62)"/>
<path d="M0 0 C1.12792969 -0.01998047 2.25585938 -0.03996094 3.41796875 -0.06054688 C11.62417927 -0.05569113 11.62417927 -0.05569113 15.65625 2.21484375 C18.98802594 6.23132788 19.75221861 9.08363476 19.79052734 14.30419922 C19.80328705 15.48577606 19.81604675 16.66735291 19.82919312 17.88473511 C19.83141876 19.1576944 19.83364441 20.43065369 19.8359375 21.7421875 C19.8425943 23.05406036 19.8492511 24.36593323 19.85610962 25.71755981 C19.86807195 28.49321788 19.87179156 31.26875158 19.87060547 34.04443359 C19.87040238 37.59091138 19.89769685 41.13658687 19.93214989 44.68287468 C19.95981565 48.07765716 19.95856936 51.47229382 19.9609375 54.8671875 C19.97530853 56.13609833 19.98967957 57.40500916 20.00448608 58.71237183 C19.94732778 69.74673107 19.94732778 69.74673107 15.5 74.4375 C10.75210379 77.60276414 5.70701863 76.76571514 0.125 76.75 C-1.01195312 76.76611328 -2.14890625 76.78222656 -3.3203125 76.79882812 C-4.41859375 76.79947266 -5.516875 76.80011719 -6.6484375 76.80078125 C-7.65052246 76.80376221 -8.65260742 76.80674316 -9.68505859 76.80981445 C-13.15693177 76.3506118 -14.82053932 75.71940873 -17.5 73.4375 C-20.97352672 66.79595752 -20.93864884 60.50681518 -20.8984375 53.125 C-20.90130768 51.95670654 -20.90417786 50.78841309 -20.90713501 49.5847168 C-20.90916915 47.12385572 -20.90368498 44.66297824 -20.89111328 42.20214844 C-20.87505136 38.44949971 -20.89098517 34.69792799 -20.91015625 30.9453125 C-20.9081737 28.54687264 -20.9043298 26.14843344 -20.8984375 23.75 C-20.90451019 22.63520264 -20.91058289 21.52040527 -20.9168396 20.37182617 C-20.86020358 14.05513078 -20.45319357 9.08414162 -17.5 3.4375 C-12.37810588 -0.90654139 -6.3793905 -0.04009903 0 0 Z M-5.5 14.4375 C-5.59831146 15.93620048 -5.62798456 17.43948539 -5.62939453 18.94140625 C-5.63254669 19.89909912 -5.63569885 20.85679199 -5.63894653 21.84350586 C-5.6369223 22.88514893 -5.63489807 23.92679199 -5.6328125 25 C-5.63424759 26.5924353 -5.63424759 26.5924353 -5.63571167 28.21704102 C-5.63639364 30.46663472 -5.63453819 32.71623037 -5.63037109 34.96582031 C-5.6250231 38.42257071 -5.63031554 41.87919117 -5.63671875 45.3359375 C-5.63605797 47.51562529 -5.63477682 49.695313 -5.6328125 51.875 C-5.63483673 52.91664307 -5.63686096 53.95828613 -5.63894653 55.03149414 C-5.63579437 55.98918701 -5.63264221 56.94687988 -5.62939453 57.93359375 C-5.62859894 58.78107178 -5.62780334 59.6285498 -5.62698364 60.50170898 C-5.71319708 62.4440713 -5.71319708 62.4440713 -4.5 63.4375 C-3.00261876 63.5354057 -1.50057108 63.56724864 0 63.5625 C0.8146875 63.56507812 1.629375 63.56765625 2.46875 63.5703125 C4.49530377 63.6620178 4.49530377 63.6620178 5.5 62.4375 C5.59831146 60.93879952 5.62798456 59.43551461 5.62939453 57.93359375 C5.63254669 56.97590088 5.63569885 56.01820801 5.63894653 55.03149414 C5.6369223 53.98985107 5.63489807 52.94820801 5.6328125 51.875 C5.63376923 50.81337646 5.63472595 49.75175293 5.63571167 48.65795898 C5.63639364 46.40836528 5.63453819 44.15876963 5.63037109 41.90917969 C5.6250231 38.45242929 5.63031554 34.99580883 5.63671875 31.5390625 C5.63605797 29.35937471 5.63477682 27.179687 5.6328125 25 C5.63483673 23.95835693 5.63686096 22.91671387 5.63894653 21.84350586 C5.63579437 20.88581299 5.63264221 19.92812012 5.62939453 18.94140625 C5.62859894 18.09392822 5.62780334 17.2464502 5.62698364 16.37329102 C5.71319708 14.4309287 5.71319708 14.4309287 4.5 13.4375 C3.00261876 13.3395943 1.50057108 13.30775136 0 13.3125 C-0.8146875 13.30992188 -1.629375 13.30734375 -2.46875 13.3046875 C-4.49530377 13.2129822 -4.49530377 13.2129822 -5.5 14.4375 Z " fill="#707175" transform="translate(405.5,61.5625)"/>
<path d="M0 0 C29.37 0 58.74 0 89 0 C89 33.66 89 67.32 89 102 C84.71 102 80.42 102 76 102 C76 72.63 76 43.26 76 13 C50.92 13 25.84 13 0 13 C0 8.71 0 4.42 0 0 Z " fill="#F18637" transform="translate(74,32)"/>
<path d="M0 0 C1.093125 0.00257812 2.18625 0.00515625 3.3125 0.0078125 C4.405625 0.00523438 5.49875 0.00265625 6.625 0 C9.3125 0.1328125 9.3125 0.1328125 10.3125 1.1328125 C10.43076039 3.02926704 10.47988062 4.93006809 10.50195312 6.83007812 C10.51867065 8.04804077 10.53538818 9.26600342 10.5526123 10.52087402 C10.55929428 11.17561203 10.56597626 11.83035004 10.57286072 12.50492859 C10.59383017 14.54686894 10.62085661 16.58864752 10.64953613 18.63049316 C10.71949091 23.70196552 10.77881711 28.7735528 10.83856201 33.84515381 C10.88941816 38.12809525 10.94422328 42.41095014 11.00437927 46.69377136 C11.03104083 48.71073872 11.05180268 50.72771374 11.0723877 52.74475098 C11.08910522 53.96271362 11.10582275 55.18067627 11.12304688 56.43554688 C11.13557495 57.51396851 11.14810303 58.59239014 11.16101074 59.70349121 C11.04031522 62.08120345 11.04031522 62.08120345 12.3125 63.1328125 C14.98308851 63.27396411 17.63682238 63.17528357 20.3125 63.1328125 C20.32058685 62.37304108 20.32867371 61.61326965 20.33700562 60.83047485 C20.41486727 53.67889817 20.50213186 46.527528 20.60002708 39.37619972 C20.65002552 35.69940609 20.69635493 32.02264168 20.734375 28.34570312 C20.77118346 24.79887547 20.81753067 21.25229029 20.87056351 17.7056694 C20.88913122 16.3508974 20.90423038 14.99607337 20.91584396 13.64122391 C20.93266509 11.74720394 20.96283616 9.85331662 20.99365234 7.95947266 C21.00697601 6.88025543 21.02029968 5.80103821 21.0340271 4.68911743 C21.3125 2.1328125 21.3125 2.1328125 23.3125 0.1328125 C25.87890625 -0.09765625 25.87890625 -0.09765625 28.875 -0.0546875 C30.36193359 -0.04501953 30.36193359 -0.04501953 31.87890625 -0.03515625 C34.3125 0.1328125 34.3125 0.1328125 35.3125 1.1328125 C35.43308096 3.24778537 35.48277221 5.36682054 35.50537109 7.48510742 C35.51763733 8.48036438 35.51763733 8.48036438 35.53015137 9.49572754 C35.55505385 11.70156951 35.57153732 13.90734672 35.5859375 16.11328125 C35.59126118 16.86612207 35.59658485 17.6189629 35.60206985 18.39461708 C35.62882794 22.38261523 35.64819054 26.37058186 35.66259766 30.35864258 C35.6792139 34.47359426 35.72395729 38.58774006 35.7749691 42.70238781 C35.8086802 45.86891059 35.82017948 49.0352435 35.82582474 52.20192909 C35.83253124 53.71817464 35.84773795 55.23440796 35.87171555 56.75047874 C35.9034442 58.87882641 35.90339366 61.0050215 35.89599609 63.13354492 C35.90812637 64.94770149 35.90812637 64.94770149 35.92050171 66.79850769 C35.09746533 71.3120709 33.56411467 72.92216996 30.3125 76.1328125 C21.44407625 79.61683612 10.23042729 79.37569515 1.3125 76.1328125 C-1.58146771 73.83247919 -2.51517735 72.64978045 -3.6875 69.1328125 C-3.78211748 66.94546823 -3.81544096 64.75530722 -3.81689453 62.56591797 C-3.81864685 61.90384338 -3.82039917 61.2417688 -3.82220459 60.55963135 C-3.82660311 58.37306085 -3.82369283 56.18657131 -3.8203125 54 C-3.82098595 52.48210637 -3.82195633 50.96421284 -3.82321167 49.44631958 C-3.8246858 46.26709973 -3.82254263 43.08790799 -3.81787109 39.90869141 C-3.81216425 35.82503978 -3.81546063 31.74145373 -3.82144356 27.65780449 C-3.82504858 24.52494813 -3.82391103 21.39210746 -3.82131577 18.25925064 C-3.82064684 16.75289019 -3.82147374 15.24652833 -3.82379532 13.74016953 C-3.82632194 11.64038032 -3.82248162 9.54069908 -3.81689453 7.44091797 C-3.81609894 6.2441745 -3.81530334 5.04743103 -3.81448364 3.81442261 C-3.64352305 0.20411779 -3.61027775 0.17841489 0 0 Z " fill="#707174" transform="translate(290.6875,60.8671875)"/>
<path d="M0 0 C1.93681161 -0.08107583 3.8745934 -0.13922475 5.8125 -0.1875 C6.89144531 -0.22230469 7.97039062 -0.25710937 9.08203125 -0.29296875 C12 0 12 0 13.6875 1.04296875 C15.66770164 3.99559085 16.91504521 7.20104314 18.1875 10.5 C18.46013672 11.17675781 18.73277344 11.85351562 19.01367188 12.55078125 C20.17796141 15.50965239 21 17.79271544 21 21 C21.66 21 22.32 21 23 21 C23.17015625 20.39414063 23.3403125 19.78828125 23.515625 19.1640625 C25.29678344 13.00580194 27.1297444 6.75213167 30 1 C32.76452033 -0.38226016 35.0461363 -0.09525387 38.125 -0.0625 C39.22070312 -0.05347656 40.31640625 -0.04445312 41.4453125 -0.03515625 C42.70988281 -0.01775391 42.70988281 -0.01775391 44 0 C45.42886001 4.58501282 44.47401742 7.03612931 42.5078125 11.33203125 C42.10971878 12.22519295 42.10971878 12.22519295 41.70358276 13.13639832 C40.85661731 15.0343939 39.9927225 16.92391331 39.125 18.8125 C38.26534769 20.69072178 37.41015486 22.57040039 36.56784058 24.45646667 C35.79956844 26.17607002 35.01569792 27.88867954 34.23095703 29.60083008 C31.68127904 36.64152159 31.52158628 41.46961631 34.7109375 48.38671875 C34.99852936 49.05161819 35.28612122 49.71651764 35.58242798 50.40156555 C36.49588702 52.50502482 37.43405337 54.5962123 38.375 56.6875 C39.30382229 58.79133553 40.22725414 60.89737951 41.14614868 63.00556946 C41.71693226 64.31081471 42.29422042 65.61324124 42.8789978 66.91227722 C44.40877677 70.36441233 45.24657433 73.23287166 46 77 C41.05 77 36.1 77 31 77 C27.6149105 70.48056836 24.76654657 63.80298338 22 57 C21.76289307 57.57032959 21.52578613 58.14065918 21.28149414 58.72827148 C20.21104366 61.29908382 19.13682419 63.8683042 18.0625 66.4375 C17.68931641 67.33533203 17.31613281 68.23316406 16.93164062 69.15820312 C16.57392578 70.01220703 16.21621094 70.86621094 15.84765625 71.74609375 C15.3527771 72.93223267 15.3527771 72.93223267 14.84790039 74.14233398 C14 76 14 76 13 77 C10.64686445 77.07271741 8.29166332 77.08370868 5.9375 77.0625 C4.00197266 77.04896484 4.00197266 77.04896484 2.02734375 77.03515625 C1.02832031 77.02355469 0.02929688 77.01195312 -1 77 C-0.46151863 71.94060243 0.68499771 67.89172161 2.7578125 63.25390625 C3.30656401 61.99178605 3.8547232 60.72940819 4.40234375 59.46679688 C5.2619246 57.5107718 6.12714169 55.55773745 7.00341797 53.60913086 C11.86980991 43.62586055 11.86980991 43.62586055 11 33 C8.83443122 27.34093532 6.43523141 21.7980304 3.99658203 16.25244141 C3.1524099 14.32324443 2.32193405 12.38856008 1.4921875 10.453125 C0.99058105 9.31004883 0.48897461 8.16697266 -0.02783203 6.98925781 C-0.99370238 4.01936415 -1.16472566 2.8359292 0 0 Z " fill="#6E6F72" transform="translate(333,61)"/>
<path d="M0 0 C12.87 0 25.74 0 39 0 C39 4.29 39 8.58 39 13 C30.75 13 22.5 13 14 13 C14 18.94 14 24.88 14 31 C15.35996094 30.98839844 16.71992188 30.97679688 18.12109375 30.96484375 C19.8932278 30.95546738 21.66536333 30.94636702 23.4375 30.9375 C24.78424805 30.92493164 24.78424805 30.92493164 26.15820312 30.91210938 C27.01220703 30.90888672 27.86621094 30.90566406 28.74609375 30.90234375 C29.93223267 30.89448853 29.93223267 30.89448853 31.14233398 30.88647461 C33 31 33 31 34 32 C34.14355117 36.00220653 34.04216403 39.99441683 34 44 C27.4 44 20.8 44 14 44 C14 54.56 14 65.12 14 76 C9.38 76 4.76 76 0 76 C0 50.92 0 25.84 0 0 Z " fill="#707175" transform="translate(193,62)"/>
<path d="M0 0 C1.08410156 -0.00257812 2.16820312 -0.00515625 3.28515625 -0.0078125 C5.9375 0.125 5.9375 0.125 6.9375 1.125 C7.0315067 3.08869153 7.05493381 5.05579199 7.05102539 7.02172852 C7.05094986 8.28296036 7.05087433 9.5441922 7.05079651 10.84364319 C7.0456891 12.23039794 7.04047309 13.61715229 7.03515625 15.00390625 C7.03329201 16.41495209 7.03186814 17.82599857 7.03086853 19.23704529 C7.02704379 22.95740535 7.0172139 26.6777266 7.00616455 30.39807129 C6.99594948 34.19180781 6.99137071 37.98555058 6.98632812 41.77929688 C6.97559158 49.22788436 6.95799515 56.6764318 6.9375 64.125 C14.8575 64.125 22.7775 64.125 30.9375 64.125 C30.9375 68.415 30.9375 72.705 30.9375 77.125 C18.0675 77.125 5.1975 77.125 -8.0625 77.125 C-8.0625 52.045 -8.0625 26.965 -8.0625 1.125 C-5.31744537 -0.24752731 -3.05922588 -0.00729255 0 0 Z " fill="#707174" transform="translate(248.0625,60.875)"/>
<path d="M0 0 C10.89 0 21.78 0 33 0 C33 6.27 33 12.54 33 19 C35.29702881 18.99476318 37.59405762 18.98952637 39.96069336 18.98413086 C47.53235636 18.96759445 55.10402013 18.95652857 62.67569637 18.94818783 C67.2684264 18.94295918 71.861138 18.93586188 76.45385742 18.92456055 C80.88233688 18.913731 85.31079856 18.90772302 89.73929024 18.90512276 C91.43265628 18.90326863 93.12602129 18.89964825 94.81937981 18.89426994 C97.18291232 18.8870586 99.54637045 18.8860091 101.90991211 18.88647461 C102.61697296 18.88287933 103.32403381 18.87928406 104.05252075 18.87557983 C108.88594784 18.88594784 108.88594784 18.88594784 110 20 C110.10053508 22.8250333 110.13615716 25.62565285 110.12939453 28.45117188 C110.13202301 29.78034386 110.13202301 29.78034386 110.13470459 31.1363678 C110.1391244 34.08051482 110.13618467 37.02460231 110.1328125 39.96875 C110.1334855 42.00516776 110.1344555 44.04158544 110.13571167 46.07800293 C110.13718882 50.35197716 110.13503355 54.62593053 110.13037109 58.89990234 C110.1246738 64.39158539 110.12795271 69.88321957 110.13394356 75.37490082 C110.13754872 79.58177054 110.13641079 83.78862859 110.13381577 87.99549866 C110.13314637 90.02100124 110.13397535 92.04650486 110.13629532 94.07200623 C110.1388211 96.8976423 110.1349823 99.72319807 110.12939453 102.54882812 C110.13141876 103.39457901 110.13344299 104.2403299 110.13552856 105.11170959 C110.11426241 110.88573759 110.11426241 110.88573759 109 112 C107.21928754 112.08726223 105.4351686 112.10699041 103.65234375 112.09765625 C102.57275391 112.09443359 101.49316406 112.09121094 100.38085938 112.08789062 C99.24455078 112.07951172 98.10824219 112.07113281 96.9375 112.0625 C95.79732422 112.05798828 94.65714844 112.05347656 93.48242188 112.04882812 C90.65489649 112.03699747 87.8274736 112.0205141 85 112 C85 111.67 85 111.34 85 111 C92.59 111 100.18 111 108 111 C108 81.3 108 51.6 108 21 C83.3624159 21.0396149 83.3624159 21.0396149 58.72485352 21.09008789 C53.96862793 21.09460449 53.96862793 21.09460449 51.74473572 21.09544373 C50.1856101 21.09698316 48.6264857 21.10050807 47.06736755 21.10557556 C44.71098754 21.11285399 42.35468052 21.11390739 39.99829102 21.11352539 C39.29926194 21.1171235 38.60023287 21.12072161 37.8800211 21.12442875 C33.11402634 21.11402634 33.11402634 21.11402634 32 20 C31.91348389 18.58429877 31.89295096 17.164405 31.90234375 15.74609375 C31.90484131 14.9770874 31.90733887 14.20808105 31.90991211 13.41577148 C31.91901611 12.43294189 31.92812012 11.4501123 31.9375 10.4375 C31.958125 7.323125 31.97875 4.20875 32 1 C22.1 1 12.2 1 2 1 C2 10.9 2 20.8 2 31 C8.27 31 14.54 31 21 31 C22.0181159 34.05434771 22.13258439 36.14400383 22.14526367 39.34179688 C22.15164352 40.43302856 22.15802338 41.52426025 22.16459656 42.64855957 C22.16570938 43.82672241 22.1668222 45.00488525 22.16796875 46.21875 C22.17129715 47.42817261 22.17462555 48.63759521 22.17805481 49.88366699 C22.18312064 52.44246032 22.18546324 55.00126026 22.18530273 57.56005859 C22.18749117 61.48415944 22.20565617 65.4079801 22.22460938 69.33203125 C22.22754291 71.8151032 22.22952797 74.29817649 22.23046875 76.78125 C22.23765427 77.95941284 22.24483978 79.13757568 22.25224304 80.35144043 C22.24916641 81.44267212 22.24608978 82.53390381 22.24291992 83.65820312 C22.24434494 84.61956177 22.24576996 85.58092041 22.24723816 86.57141113 C22 89 22 89 20 92 C20 72.2 20 52.4 20 32 C13.4 32 6.8 32 0 32 C0 21.44 0 10.88 0 0 Z " fill="#DB874F" transform="translate(33,32)"/>
<path d="M0 0 C0.74168427 0.00444122 1.48336853 0.00888245 2.24752808 0.01345825 C3.50860886 0.01368484 3.50860886 0.01368484 4.79516602 0.01391602 C6.15773026 0.02939987 6.15773026 0.02939987 7.54782104 0.04519653 C8.47722504 0.04802643 9.40662903 0.05085632 10.36419678 0.05377197 C13.33959704 0.06498834 16.3146989 0.09009543 19.29000854 0.11550903 C21.30432712 0.12553696 23.31865041 0.13466313 25.33297729 0.14285278 C30.27710311 0.16493243 35.22100519 0.1994721 40.16500854 0.24050903 C40.82500854 1.56050903 41.48500854 2.88050903 42.16500854 4.24050903 C40.16500854 6.24050903 40.16500854 6.24050903 38.33001709 6.48101807 C37.58833282 6.47657684 36.84664856 6.47213562 36.08248901 6.46755981 C34.82140823 6.46733322 34.82140823 6.46733322 33.53485107 6.46710205 C32.62647491 6.45677948 31.71809875 6.44645691 30.78219604 6.43582153 C29.38809006 6.43157669 29.38809006 6.43157669 27.96582031 6.42724609 C24.99042005 6.41602972 22.01531819 6.39092264 19.04000854 6.36550903 C17.02568997 6.35548111 15.01136668 6.34635494 12.99703979 6.33816528 C8.05291398 6.31608564 3.1090119 6.28154597 -1.83499146 6.24050903 C-2.49499146 4.92050903 -3.15499146 3.60050903 -3.83499146 2.24050903 C-1.83499146 0.24050903 -1.83499146 0.24050903 0 0 Z " fill="#6E6E71" transform="translate(79.83499145507813,97.75949096679688)"/>
<path d="M0 0 C0.74168427 0.00444122 1.48336853 0.00888245 2.24752808 0.01345825 C3.50860886 0.01368484 3.50860886 0.01368484 4.79516602 0.01391602 C6.15773026 0.02939987 6.15773026 0.02939987 7.54782104 0.04519653 C8.47722504 0.04802643 9.40662903 0.05085632 10.36419678 0.05377197 C13.33959704 0.06498834 16.3146989 0.09009543 19.29000854 0.11550903 C21.30432712 0.12553696 23.31865041 0.13466313 25.33297729 0.14285278 C30.27710311 0.16493243 35.22100519 0.1994721 40.16500854 0.24050903 C40.82500854 1.56050903 41.48500854 2.88050903 42.16500854 4.24050903 C40.16500854 6.24050903 40.16500854 6.24050903 38.33001709 6.48101807 C37.58833282 6.47657684 36.84664856 6.47213562 36.08248901 6.46755981 C34.82140823 6.46733322 34.82140823 6.46733322 33.53485107 6.46710205 C32.62647491 6.45677948 31.71809875 6.44645691 30.78219604 6.43582153 C29.38809006 6.43157669 29.38809006 6.43157669 27.96582031 6.42724609 C24.99042005 6.41602972 22.01531819 6.39092264 19.04000854 6.36550903 C17.02568997 6.35548111 15.01136668 6.34635494 12.99703979 6.33816528 C8.05291398 6.31608564 3.1090119 6.28154597 -1.83499146 6.24050903 C-2.49499146 4.92050903 -3.15499146 3.60050903 -3.83499146 2.24050903 C-1.83499146 0.24050903 -1.83499146 0.24050903 0 0 Z " fill="#6B6C6E" transform="translate(79.83499145507813,85.75949096679688)"/>
<path d="M0 0 C4.62 0 9.24 0 14 0 C14 12.21 14 24.42 14 37 C-0.19 37 -14.38 37 -29 37 C-29 31.06 -29 25.12 -29 19 C-28.34 19 -27.68 19 -27 19 C-27 24.61 -27 30.22 -27 36 C-13.8 36 -0.6 36 13 36 C12.67 28.08 12.34 20.16 12 12 C8.24020355 10.63716826 8.24020355 10.63716826 5.75 11.9375 C5.1725 12.288125 4.595 12.63875 4 13 C4 11.68 4 10.36 4 9 C3.34 9 2.68 9 2 9 C1.67 9.99 1.34 10.98 1 12 C0.67 12 0.34 12 0 12 C0 8.04 0 4.08 0 0 Z " fill="#E7833E" transform="translate(82,131)"/>
<path d="M0 0 C29.37 0 58.74 0 89 0 C88.67 1.32 88.34 2.64 88 4 C88 3.01 88 2.02 88 1 C59.29 1 30.58 1 1 1 C1 3.97 1 6.94 1 10 C37.63 10.495 37.63 10.495 75 11 C75.495 11.99 75.495 11.99 76 13 C50.92 13 25.84 13 0 13 C0 8.71 0 4.42 0 0 Z " fill="#E0894C" transform="translate(74,32)"/>
<path d="M0 0 C2.68604758 2.68604758 2.29459354 4.11146281 2.38232422 7.87084961 C2.41510468 9.10230209 2.44788513 10.33375458 2.48165894 11.6025238 C2.50681449 12.95244889 2.53113714 14.30238971 2.5546875 15.65234375 C2.58355346 17.03235957 2.61270152 18.41236951 2.64212036 19.79237366 C2.70110194 22.68661255 2.75187105 25.58086866 2.79785156 28.4753418 C2.85813476 32.18616377 2.94600771 35.89576762 3.04099846 39.60584164 C3.10968902 42.45635826 3.16002898 45.30698348 3.20520401 48.15796089 C3.22980256 49.52603999 3.26098959 50.89401694 3.29885483 52.26179314 C3.34977044 54.17403282 3.3725578 56.08695911 3.39404297 57.99975586 C3.4146579 59.08848495 3.43527283 60.17721405 3.45651245 61.29893494 C3 64 3 64 1.13571167 65.85946655 C-1.5952474 67.31787979 -3.34301391 67.26237137 -6.421875 67.07421875 C-7.44667969 67.01943359 -8.47148438 66.96464844 -9.52734375 66.90820312 C-10.59082031 66.83537109 -11.65429688 66.76253906 -12.75 66.6875 C-13.82894531 66.62626953 -14.90789062 66.56503906 -16.01953125 66.50195312 C-18.68087106 66.34886721 -21.34043997 66.1810454 -24 66 C-23.88204571 70.82398914 -23.75781982 75.64775958 -23.62768555 80.47143555 C-23.58427703 82.11364303 -23.54260642 83.75589739 -23.50268555 85.39819336 C-23.4451256 87.75388745 -23.38139108 90.10934428 -23.31640625 92.46484375 C-23.29969376 93.20339096 -23.28298126 93.94193817 -23.26576233 94.7028656 C-23.46451987 98.14300627 -23.46451987 98.14300627 -22 101 C-19.03 101.33 -16.06 101.66 -13 102 C-13 94.41 -13 86.82 -13 79 C-12.67 79 -12.34 79 -12 79 C-12 86.92 -12 94.84 -12 103 C-16.29 103 -20.58 103 -25 103 C-25 90.46 -25 77.92 -25 65 C-16.75 65 -8.5 65 0 65 C0 43.55 0 22.1 0 0 Z " fill="#DB8D51" transform="translate(129,65)"/>
<path d="M0 0 C1.26108078 0.0001133 1.26108078 0.0001133 2.54763794 0.00022888 C3.91020218 0.00797081 3.91020218 0.00797081 5.30029297 0.01586914 C6.22969696 0.01728409 7.15910095 0.01869904 8.1166687 0.02015686 C11.09197171 0.02576486 14.06720011 0.03831871 17.04248047 0.05102539 C19.0568023 0.05603936 21.07112531 0.06060245 23.08544922 0.06469727 C28.02948849 0.07573689 32.97347182 0.0930069 37.91748047 0.11352539 C38.57748047 1.43352539 39.23748047 2.75352539 39.91748047 4.11352539 C38.91748047 5.11352539 38.91748047 5.11352539 37.1268158 5.23377991 C36.34738113 5.2315593 35.56794647 5.22933868 34.76489258 5.22705078 C33.88405502 5.22697525 33.00321747 5.22689972 32.09568787 5.2268219 C31.13840286 5.22166061 30.18111786 5.21649933 29.19482422 5.21118164 C28.21961319 5.20976669 27.24440216 5.20835175 26.23963928 5.20689392 C23.11138904 5.20127672 19.98320924 5.18872132 16.85498047 5.17602539 C14.73974712 5.17101261 12.62451266 5.16644932 10.50927734 5.16235352 C5.31198751 5.1513017 0.11473902 5.13454685 -5.08251953 5.11352539 C-5.41251953 3.79352539 -5.74251953 2.47352539 -6.08251953 1.11352539 C-3.79620459 -0.02963208 -2.53904547 -0.00760193 0 0 Z " fill="#6A6A6D" transform="translate(82.08251953125,109.886474609375)"/>
<path d="M0 0 C10.23 0 20.46 0 31 0 C31.495 1.485 31.495 1.485 32 3 C30.89672852 4.47729492 30.89672852 4.47729492 29 6 C26.12084961 6.37231445 26.12084961 6.37231445 22.65234375 6.36328125 C21.40775391 6.36263672 20.16316406 6.36199219 18.88085938 6.36132812 C17.57955078 6.34521484 16.27824219 6.32910156 14.9375 6.3125 C13.63232422 6.31572266 12.32714844 6.31894531 10.98242188 6.32226562 C1.26686327 6.26686327 1.26686327 6.26686327 -1 4 C-0.67 2.68 -0.34 1.36 0 0 Z " fill="#707071" transform="translate(90,73)"/>
<path d="M0 0 C1.08410156 -0.00257812 2.16820312 -0.00515625 3.28515625 -0.0078125 C5.9375 0.125 5.9375 0.125 6.9375 1.125 C7.0315067 3.08869153 7.05493381 5.05579199 7.05102539 7.02172852 C7.05094986 8.28296036 7.05087433 9.5441922 7.05079651 10.84364319 C7.0456891 12.23039794 7.04047309 13.61715229 7.03515625 15.00390625 C7.03329201 16.41495209 7.03186814 17.82599857 7.03086853 19.23704529 C7.02704379 22.95740535 7.0172139 26.6777266 7.00616455 30.39807129 C6.99594948 34.19180781 6.99137071 37.98555058 6.98632812 41.77929688 C6.97559158 49.22788231 6.9585157 56.67643572 6.9375 64.125 C7.5975 64.455 8.2575 64.785 8.9375 65.125 C7 64.8125 7 64.8125 4.9375 64.125 C3.59750761 60.10502283 4.10976257 56.41518174 4.375 52.25 C4.98771954 41.24789665 5.02543979 30.26503224 5 19.25 C4.9981369 18.40375061 4.9962738 17.55750122 4.99435425 16.68560791 C4.98217352 11.83203014 4.96277473 6.97852644 4.9375 2.125 C1.6375 2.125 -1.6625 2.125 -5.0625 2.125 C-5.89444571 5.45278284 -6.20946054 7.89243682 -6.26782227 11.26074219 C-6.28776749 12.28149841 -6.30771271 13.30225464 -6.32826233 14.35394287 C-6.34497482 15.44886047 -6.36168732 16.54377808 -6.37890625 17.671875 C-6.39968735 18.7982135 -6.42046844 19.924552 -6.44187927 21.08502197 C-6.50724333 24.68161949 -6.56619885 28.27828977 -6.625 31.875 C-6.6681977 34.3138096 -6.7118124 36.75261184 -6.75585938 39.19140625 C-6.8629113 45.169194 -6.96470217 51.14705407 -7.0625 57.125 C-7.3925 57.125 -7.7225 57.125 -8.0625 57.125 C-8.0625 38.645 -8.0625 20.165 -8.0625 1.125 C-5.31744537 -0.24752731 -3.05922588 -0.00729255 0 0 Z " fill="#646466" transform="translate(248.0625,60.875)"/>
<path d="M0 0 C0.66 0 1.32 0 2 0 C2 13.53 2 27.06 2 41 C5.63 41 9.26 41 13 41 C12.979375 39.288125 12.95875 37.57625 12.9375 35.8125 C12.92958532 29.17208182 13.40294363 22.61026697 14 16 C16.31 16 18.62 16 21 16 C22.59138085 20.17737474 23.21278058 23.53160785 23 28 C20.87953208 24.46588679 20.46800711 21.05606165 20 17 C18.35 17 16.7 17 15 17 C15.00523682 17.7520874 15.01047363 18.5041748 15.01586914 19.27905273 C15.03657227 22.66519342 15.04963877 26.05132084 15.0625 29.4375 C15.07087891 30.62150391 15.07925781 31.80550781 15.08789062 33.02539062 C15.09111328 34.15009766 15.09433594 35.27480469 15.09765625 36.43359375 C15.10289307 37.47572021 15.10812988 38.51784668 15.11352539 39.59155273 C15 42 15 42 14 43 C11.83519203 43.0989294 9.66706215 43.129711 7.5 43.125 C6.3140625 43.12757813 5.128125 43.13015625 3.90625 43.1328125 C1 43 1 43 0 42 C-0.08874135 38.89748799 -0.11518455 35.8173188 -0.09765625 32.71484375 C-0.0962413 31.78402481 -0.09482635 30.85320587 -0.09336853 29.8941803 C-0.08775172 26.90858809 -0.0751964 23.92306971 -0.0625 20.9375 C-0.05748716 18.91862087 -0.05292388 16.89974057 -0.04882812 14.88085938 C-0.03777683 9.92054428 -0.02050095 4.96028468 0 0 Z " fill="#616265" transform="translate(433,96)"/>
<path d="M0 0 C2.65716374 2.65716374 2.26340682 3.92797016 2.29052734 7.63964844 C2.30328705 8.82137634 2.31604675 10.00310425 2.32919312 11.22064209 C2.33141876 12.50392395 2.33364441 13.78720581 2.3359375 15.109375 C2.3425943 16.42407776 2.3492511 17.73878052 2.35610962 19.09332275 C2.36809724 21.88093342 2.37178919 24.66842006 2.37060547 27.45605469 C2.37040277 31.01828389 2.39764569 34.57971084 2.43214989 38.14175034 C2.45982727 41.54763662 2.45857016 44.95337778 2.4609375 48.359375 C2.47530853 49.63455994 2.48967957 50.90974487 2.50448608 52.22357178 C2.44732576 63.31828679 2.44732576 63.31828679 -2 68 C-5.44633882 70.29755922 -6.71068391 70.23643976 -10.76171875 70.1953125 C-11.87998047 70.18886719 -12.99824219 70.18242187 -14.15039062 70.17578125 C-15.90125977 70.15064453 -15.90125977 70.15064453 -17.6875 70.125 C-18.86634766 70.11597656 -20.04519531 70.10695313 -21.25976562 70.09765625 C-24.17338026 70.07406423 -27.08658892 70.0411454 -30 70 C-30 69.67 -30 69.34 -30 69 C-29.3294458 68.98541748 -28.6588916 68.97083496 -27.96801758 68.95581055 C-24.91561178 68.881117 -21.86427415 68.78452701 -18.8125 68.6875 C-17.75740234 68.66494141 -16.70230469 68.64238281 -15.61523438 68.61914062 C-14.59365234 68.58369141 -13.57207031 68.54824219 -12.51953125 68.51171875 C-11.58214111 68.48553467 -10.64475098 68.45935059 -9.67895508 68.43237305 C-6.43680037 67.90910174 -4.58785577 67.02090503 -2 65 C-0.17833997 61.35367442 0.24555737 58.40416042 0.22705078 54.35522461 C0.22689972 53.24735092 0.22674866 52.13947723 0.22659302 50.99803162 C0.21627045 49.81145462 0.20594788 48.62487762 0.1953125 47.40234375 C0.1924826 46.17592667 0.18965271 44.94950958 0.18673706 43.68592834 C0.175553 39.7696859 0.1504687 35.85367306 0.125 31.9375 C0.11496637 29.29622729 0.10584119 26.65495096 0.09765625 24.01367188 C0.07799657 18.20016494 0.04957942 12.38677605 0.01345825 6.573349 C0.00199916 4.38225804 0 2.19112093 0 0 Z " fill="#616264" transform="translate(423,68)"/>
<path d="M0 0 C8.58 0 17.16 0 26 0 C24 2 24 2 21.66162109 2.13525391 C20.70852051 2.08288574 19.75541992 2.03051758 18.7734375 1.9765625 C17.7421875 1.925 16.7109375 1.8734375 15.6484375 1.8203125 C14.02808594 1.72363281 14.02808594 1.72363281 12.375 1.625 C11.28703125 1.56828125 10.1990625 1.5115625 9.078125 1.453125 C6.38477613 1.3113698 3.6923207 1.15993358 1 1 C1.11795429 5.82398914 1.24218018 10.64775958 1.37231445 15.47143555 C1.41572297 17.11364303 1.45739358 18.75589739 1.49731445 20.39819336 C1.5548744 22.75388745 1.61860892 25.10934428 1.68359375 27.46484375 C1.70030624 28.20339096 1.71701874 28.94193817 1.73423767 29.7028656 C1.53548013 33.14300627 1.53548013 33.14300627 3 36 C5.97 36.33 8.94 36.66 12 37 C12 29.41 12 21.82 12 14 C12.33 14 12.66 14 13 14 C13 21.92 13 29.84 13 38 C8.71 38 4.42 38 0 38 C0 25.46 0 12.92 0 0 Z " fill="#D7854C" transform="translate(104,130)"/>
<path d="M0 0 C-0.99 0.495 -0.99 0.495 -2 1 C-1.75636719 2.03640625 -1.75636719 2.03640625 -1.5078125 3.09375 C-0.42314903 9.30136246 -0.88929045 15.71642688 -1 22 C-1.01788574 23.17143555 -1.03577148 24.34287109 -1.05419922 25.54980469 C-1.1221706 29.49214478 -1.21448859 33.43329983 -1.3125 37.375 C-1.33489746 38.67759766 -1.35729492 39.98019531 -1.38037109 41.32226562 C-1.41598145 42.54365234 -1.4515918 43.76503906 -1.48828125 45.0234375 C-1.51446533 46.12606934 -1.54064941 47.22870117 -1.56762695 48.36474609 C-1.71031006 49.23437988 -1.85299316 50.10401367 -2 51 C-5.35327639 53.23551759 -5.90743657 53.17283528 -9.6875 52.625 C-10.49574219 52.51414063 -11.30398438 52.40328125 -12.13671875 52.2890625 C-12.75160156 52.19367188 -13.36648438 52.09828125 -14 52 C-13.67 51.34 -13.34 50.68 -13 50 C-10.03 50 -7.06 50 -4 50 C-4 34.16 -4 18.32 -4 2 C-5.32 1.34 -6.64 0.68 -8 0 C-4.71023192 -1.09658936 -3.28696233 -0.79953138 0 0 Z " fill="#646568" transform="translate(414,74)"/>
<path d="M0 0 C0.61875 0.474375 1.2375 0.94875 1.875 1.4375 C3.90705546 3.02417441 3.90705546 3.02417441 6 4 C5.814375 4.721875 5.62875 5.44375 5.4375 6.1875 C4.81505465 8.92843933 4.81505465 8.92843933 5.6171875 11.26171875 C6.13322787 14.95298715 5.086895 17.19549676 3.6875 20.625 C3.23761719 21.75164062 2.78773438 22.87828125 2.32421875 24.0390625 C1 27 1 27 -1 30 C-0.34 30.33 0.32 30.66 1 31 C0.34 31 -0.32 31 -1 31 C-0.67 31.99 -0.34 32.98 0 34 C-0.9590625 34.3403125 -0.9590625 34.3403125 -1.9375 34.6875 C-4.26012621 35.82682205 -4.26012621 35.82682205 -4.5625 38.4375 C-4.7790625 39.7059375 -4.7790625 39.7059375 -5 41 C-6.5625 42.8125 -6.5625 42.8125 -8 44 C-7.37664854 40.20887417 -6.26142723 37.03863176 -4.6796875 33.54296875 C-4.22722656 32.51236328 -3.77476562 31.48175781 -3.30859375 30.41992188 C-2.35591133 28.27184366 -1.39241414 26.12852808 -0.41796875 23.99023438 C2.31490403 17.7061931 3.67579884 13.71071017 2 7 C1.82339844 6.236875 1.64679688 5.47375 1.46484375 4.6875 C1.29082031 4.130625 1.11679687 3.57375 0.9375 3 C0.628125 2.01 0.31875 1.02 0 0 Z " fill="#5C5D5F" transform="translate(342,87)"/>
<path d="M0 0 C1.66858014 3.02034126 2.52327757 5.80645802 3.1875 9.1875 C3.45626953 10.50814453 3.45626953 10.50814453 3.73046875 11.85546875 C3.81941406 12.56316406 3.90835937 13.27085937 4 14 C3 15 3 15 0.05859375 15.09765625 C-1.73384766 15.08025391 -1.73384766 15.08025391 -3.5625 15.0625 C-5.35880859 15.04896484 -5.35880859 15.04896484 -7.19140625 15.03515625 C-8.11824219 15.02355469 -9.04507812 15.01195312 -10 15 C-11.86540627 10.29593201 -13.36843005 6.05255964 -14 1 C-12 2 -12 2 -11.11328125 3.99609375 C-10.84902344 4.80175781 -10.58476562 5.60742188 -10.3125 6.4375 C-10.04050781 7.24058594 -9.76851563 8.04367188 -9.48828125 8.87109375 C-9 11 -9 11 -10 13 C-9.34 13 -8.68 13 -8 13 C-7.67 12.34 -7.34 11.68 -7 11 C-7 11.66 -7 12.32 -7 13 C-4.03 13 -1.06 13 2 13 C1.67 12.34 1.34 11.68 1 11 C-0.28687011 7.13938967 -0.13757618 4.05849717 0 0 Z " fill="#5D5D5F" transform="translate(470,124)"/>
<path d="M0 0 C1.093125 0.00257812 2.18625 0.00515625 3.3125 0.0078125 C4.405625 0.00523438 5.49875 0.00265625 6.625 0 C9.3125 0.1328125 9.3125 0.1328125 10.3125 1.1328125 C10.35342937 3.46578683 10.35491723 5.79986475 10.3125 8.1328125 C9.6525 8.1328125 8.9925 8.1328125 8.3125 8.1328125 C8.3125 7.4728125 8.3125 6.8128125 8.3125 6.1328125 C7.6525 6.1328125 6.9925 6.1328125 6.3125 6.1328125 C6.6425 4.8128125 6.9725 3.4928125 7.3125 2.1328125 C4.0125 2.1328125 0.7125 2.1328125 -2.6875 2.1328125 C-2.6875 10.3828125 -2.6875 18.6328125 -2.6875 27.1328125 C-3.0175 27.1328125 -3.3475 27.1328125 -3.6875 27.1328125 C-3.71636537 22.82032641 -3.73425255 18.50786488 -3.75 14.1953125 C-3.75837891 12.96361328 -3.76675781 11.73191406 -3.77539062 10.46289062 C-3.77861328 9.29306641 -3.78183594 8.12324219 -3.78515625 6.91796875 C-3.79039307 5.83394775 -3.79562988 4.74992676 -3.80102539 3.63305664 C-3.64295492 0.15176698 -3.49743839 0.17283853 0 0 Z " fill="#69696C" transform="translate(290.6875,60.8671875)"/>
<path d="M0 0 C2.26171875 0.4609375 2.26171875 0.4609375 4.6875 1.375 C5.49574219 1.67148437 6.30398437 1.96796875 7.13671875 2.2734375 C7.75160156 2.51320312 8.36648437 2.75296875 9 3 C9 5.31 9 7.62 9 10 C8.34 9.67 7.68 9.34 7 9 C7 7.02 7 5.04 7 3 C5.02 3 3.04 3 1 3 C1 4.98 1 6.96 1 9 C2.65 9 4.3 9 6 9 C6 9.33 6 9.66 6 10 C0.58461538 10.36923077 0.58461538 10.36923077 -2.375 8.5 C-2.91125 8.005 -3.4475 7.51 -4 7 C-3.6875 4.625 -3.6875 4.625 -3 2 C-2.01 1.34 -1.02 0.68 0 0 Z " fill="#E18743" transform="translate(46,42)"/>
<path d="M0 0 C0.66 0.33 1.32 0.66 2 1 C3.16453326 4.49359977 3.18064606 7.66422609 3.203125 11.30078125 C3.20882507 12.01477585 3.21452515 12.72877045 3.22039795 13.46440125 C3.22983651 14.97486902 3.23637739 16.48535727 3.24023438 17.99584961 C3.24992129 20.29382786 3.28094606 22.59090414 3.3125 24.88867188 C3.31903256 26.35936971 3.32428204 27.83007392 3.328125 29.30078125 C3.3404718 29.98223709 3.3528186 30.66369293 3.36553955 31.36579895 C3.34430788 35.96819052 2.32122437 39.04817297 0 43 C-0.66 43 -1.32 43 -2 43 C-1.51144531 41.79859375 -1.02289063 40.5971875 -0.51953125 39.359375 C1.58152952 33.04258958 1.40181743 26.84519924 1.3125 20.25 C1.31733398 18.44208984 1.31733398 18.44208984 1.32226562 16.59765625 C1.28882102 11.11882114 1.08065007 7.08468191 -1 2 C-0.67 1.34 -0.34 0.68 0 0 Z " fill="#616163" transform="translate(471,67)"/>
<path d="M0 0 C1.98 0 3.96 0 6 0 C5.67 0.99 5.34 1.98 5 3 C7.7902667 3.9300889 9.76529542 4.18698769 12.66796875 4.31640625 C14.00698242 4.37924805 14.00698242 4.37924805 15.37304688 4.44335938 C16.76620117 4.50233398 16.76620117 4.50233398 18.1875 4.5625 C19.12787109 4.60568359 20.06824219 4.64886719 21.03710938 4.69335938 C23.35792854 4.79938665 25.67885325 4.90145029 28 5 C28 5.33 28 5.66 28 6 C23.54172074 6.0578304 19.0835372 6.09353855 14.625 6.125 C13.35398437 6.14175781 12.08296875 6.15851563 10.7734375 6.17578125 C9.56171875 6.18222656 8.35 6.18867187 7.1015625 6.1953125 C5.98088379 6.20578613 4.86020508 6.21625977 3.70556641 6.22705078 C1 6 1 6 -1 4 C-0.625 1.875 -0.625 1.875 0 0 Z " fill="#616161" transform="translate(90,73)"/>
<path d="M0 0 C2.475 0.495 2.475 0.495 5 1 C5 4.96 5 8.92 5 13 C-1.6 13 -8.2 13 -15 13 C-15.33 14.32 -15.66 15.64 -16 17 C-16 15.35 -16 13.7 -16 12 C-9.73 12 -3.46 12 3 12 C2.87625 10.39125 2.7525 8.7825 2.625 7.125 C2.55539063 6.22007813 2.48578125 5.31515625 2.4140625 4.3828125 C2.20431868 1.82058097 2.20431868 1.82058097 0 0 Z " fill="#646467" transform="translate(222,93)"/>
<path d="M0 0 C0.33 0 0.66 0 1 0 C1.33 8.25 1.66 16.5 2 25 C2.66 25.33 3.32 25.66 4 26 C2.0625 25.6875 2.0625 25.6875 0 25 C-1.02820502 21.91538494 -1.04582849 20.10314761 -0.87890625 16.89453125 C-0.83056641 15.91162109 -0.78222656 14.92871094 -0.73242188 13.91601562 C-0.67634766 12.89185547 -0.62027344 11.86769531 -0.5625 10.8125 C-0.51029297 9.77673828 -0.45808594 8.74097656 -0.40429688 7.67382812 C-0.27461607 5.11557951 -0.13965022 2.55772062 0 0 Z " fill="#67696D" transform="translate(253,100)"/>
<path d="M0 0 C2 1 2 1 2 1 Z M-2 1 C-1.34 1 -0.68 1 0 1 C0.33 1.99 0.66 2.98 1 4 C0.360625 4.226875 -0.27875 4.45375 -0.9375 4.6875 C-3.26012621 5.82682205 -3.26012621 5.82682205 -3.5625 8.4375 C-3.7790625 9.7059375 -3.7790625 9.7059375 -4 11 C-5.5625 12.8125 -5.5625 12.8125 -7 14 C-6.39254603 9.14036821 -4.27241033 5.2594482 -2 1 Z " fill="#646567" transform="translate(341,117)"/>
<path d="M0 0 C1.87939453 -0.34057617 1.87939453 -0.34057617 4.1328125 -0.29296875 C4.93847656 -0.28330078 5.74414062 -0.27363281 6.57421875 -0.26367188 C7.41597656 -0.23853516 8.25773437 -0.21339844 9.125 -0.1875 C9.97449219 -0.17396484 10.82398437 -0.16042969 11.69921875 -0.14648438 C13.79974837 -0.11108219 15.89995293 -0.05727401 18 0 C14.71708278 1.96975033 12.35913602 2.1941448 8.5625 2.0625 C4.85206341 1.94380731 1.6205304 2.15236221 -2 3 C-1.34 2.01 -0.68 1.02 0 0 Z " fill="#6A6A6C" transform="translate(78,98)"/>
<path d="M0 0 C0.99 0.33 1.98 0.66 3 1 C1.68 3.64 0.36 6.28 -1 9 C-1.66 9 -2.32 9 -3 9 C-2.69181644 7.68647977 -2.37832335 6.37420428 -2.0625 5.0625 C-1.88847656 4.33160156 -1.71445312 3.60070312 -1.53515625 2.84765625 C-1 1 -1 1 0 0 Z " fill="#6C6C6E" transform="translate(388,66)"/>
<path d="M0 0 C2.68912283 1.34456142 2.7891782 2.57411381 3.75 5.375 C4.03359375 6.16648438 4.3171875 6.95796875 4.609375 7.7734375 C5 10 5 10 3 13 C2.01 8.71 1.02 4.42 0 0 Z " fill="#636466" transform="translate(456,125)"/>
<path d="M0 0 C0.33 0 0.66 0 1 0 C1.33 4.29 1.66 8.58 2 13 C1.01 13.495 1.01 13.495 0 14 C-0.66 13.34 -1.32 12.68 -2 12 C-1.34 12 -0.68 12 0 12 C0 8.04 0 4.08 0 0 Z " fill="#66676B" transform="translate(446,125)"/>
</svg>
